P3
64 64
255
191 195 196 189 191 190 198 200 199 197 197 197 192 196 197 201 203 202 201 205 206 212 216 215 203 207 208 206 208 207 198 198 198 199 199 199 199 199 197 191 191 191 182 182 182 186 188 187 181 177 176 182 180 181 190 192 191 174 172 173 190 182 180 182 176 176 187 189 186 185 187 186 191 195 196 182 182 182 188 188 188 185 184 182 186 186 186 195 195 195 191 191 191 189 188 186 191 192 194 188 188 188 183 183 183 175 175 175 201 200 198 196 196 196 206 208 207 201 202 204 179 181 180 179 183 184 184 186 185 186 190 191 190 194 195 187 187 187 190 194 195 190 191 193 198 202 203 193 197 198 187 191 192 184 188 189 177 183 183 189 193 192 196 196 196 190 190 190 187 187 187 179 184 187 182 186 187 187 191 192 183 185 182 185 184 182 183 185 184 190 190 190 
190 192 191 192 196 197 194 198 199 207 209 208 199 202 207 205 209 210 203 205 204 202 206 207 201 203 202 205 205 205 198 200 199 196 194 195 198 198 198 198 200 199 183 183 183 189 189 189 184 183 181 181 177 176 179 179 179 179 181 180 187 187 187 187 191 192 191 193 192 180 180 180 188 194 194 184 183 181 192 194 193 184 184 184 194 194 194 192 191 187 197 195 196 188 192 191 198 198 198 185 185 183 176 176 176 175 177 176 187 187 187 184 184 184 184 184 184 195 195 195 188 186 187 188 190 189 187 191 192 188 192 193 188 192 193 188 192 193 191 195 196 192 194 193 193 197 198 192 196 197 189 193 194 191 192 196 182 186 187 193 195 194 195 195 195 195 195 195 191 193 192 186 186 186 180 184 185 187 191 192 186 190 191 185 185 183 186 192 192 189 193 194 
190 194 195 191 192 194 197 198 200 206 206 206 193 193 193 204 206 205 192 191 189 197 201 202 207 206 204 203 203 203 201 201 201 204 206 205 196 198 197 195 193 194 188 190 189 193 193 193 192 192 190 180 180 182 177 177 177 178 174 173 185 187 186 198 200 199 205 207 206 184 186 185 200 204 203 186 186 186 194 195 197 188 188 188 199 201 200 199 198 196 193 193 193 196 198 197 187 189 188 182 182 182 180 178 179 176 176 176 191 191 189 186 185 183 185 181 180 198 198 198 172 174 173 174 174 174 184 182 185 186 186 186 189 191 186 184 184 184 184 186 185 192 192 192 193 194 196 189 193 192 194 198 199 191 195 196 194 196 193 191 192 187 196 196 198 197 199 198 196 198 197 183 187 188 178 182 181 188 192 193 186 190 191 190 192 191 184 186 185 198 202 203 
189 189 189 185 189 190 195 195 195 201 201 201 192 192 192 204 204 204 203 199 198 200 202 201 195 197 196 216 215 213 211 210 208 207 205 206 195 195 195 195 195 195 193 193 193 190 190 188 188 188 188 185 185 185 178 178 178 177 176 174 183 187 188 191 195 194 201 203 202 198 198 200 194 196 195 188 188 188 193 195 194 199 201 200 199 201 200 193 195 194 190 190 190 192 190 191 195 195 195 185 185 187 182 182 182 184 183 181 196 195 193 198 200 199 192 192 192 195 195 195 179 178 176 170 172 171 179 179 179 181 179 182 197 188 189 184 183 181 182 182 182 181 186 182 199 199 201 193 195 194 204 200 199 196 200 201 186 188 185 187 186 184 188 188 188 198 200 199 192 196 197 184 183 181 179 179 179 196 186 185 186 187 189 183 187 188 185 189 190 189 191 190 
184 183 179 187 187 185 189 185 184 200 198 199 190 190 190 201 200 198 195 194 192 195 195 195 206 208 207 204 206 205 195 199 200 196 200 199 193 195 194 194 194 192 201 199 200 193 195 194 193 191 192 195 197 196 187 185 188 177 177 177 198 202 201 204 204 204 193 193 193 204 204 204 201 197 198 198 200 199 191 193 192 197 197 197 194 196 195 192 192 192 189 191 190 190 192 191 193 193 193 192 194 193 184 180 179 175 175 175 200 198 199 197 199 198 190 192 189 182 182 182 184 186 185 185 185 185 188 188 186 194 182 182 187 181 181 181 180 176 188 184 185 191 185 185 178 178 178 185 185 185 186 188 187 196 198 197 186 188 187 184 183 181 186 180 180 190 189 187 197 197 195 190 184 184 181 181 181 184 183 181 191 191 191 187 189 188 185 185 185 192 192 192 
206 208 207 194 190 189 190 190 188 203 199 198 196 196 196 198 196 199 189 189 189 190 190 190 212 210 211 210 208 209 212 214 213 202 202 200 193 195 194 192 194 193 203 203 203 200 199 197 194 194 194 203 203 203 195 195 195 195 195 193 199 199 199 200 200 200 200 200 200 202 201 197 194 196 195 188 188 188 195 195 195 195 197 196 193 197 196 194 194 194 188 188 188 187 187 187 198 194 193 190 190 190 191 191 191 187 186 182 193 193 195 207 209 208 188 190 189 187 187 187 186 190 193 188 190 189 194 194 194 196 187 188 192 183 184 181 180 178 184 184 184 188 184 181 186 182 181 182 181 179 189 185 182 191 193 192 190 190 190 194 194 194 187 187 185 190 186 185 195 194 192 186 186 186 190 186 185 182 178 175 191 185 185 185 184 182 182 182 182 204 200 201 
203 205 204 221 219 220 193 189 186 197 199 198 198 196 197 190 190 190 191 191 191 192 191 189 198 200 199 197 201 200 200 200 200 193 197 198 196 195 191 194 196 195 204 206 205 200 202 201 197 197 197 200 202 201 200 200 200 199 199 197 199 197 200 204 206 205 197 199 198 197 197 199 189 191 190 189 189 189 191 191 191 185 185 185 191 193 192 189 187 188 184 184 184 190 190 188 195 195 195 191 193 192 196 194 195 191 187 184 190 190 190 192 194 193 189 188 186 183 182 180 196 198 197 186 188 187 190 192 191 192 192 192 191 187 186 185 184 182 191 190 188 183 182 180 187 187 187 177 177 177 184 184 184 190 190 190 185 185 185 196 196 196 189 187 188 187 186 184 190 190 188 188 188 188 180 180 180 182 181 179 183 182 180 190 184 184 189 188 186 205 201 200 
204 202 203 204 206 205 196 198 197 200 199 197 203 201 202 193 193 193 177 176 172 197 199 198 195 197 196 207 209 208 199 201 200 199 201 200 196 194 195 199 199 199 197 199 198 208 208 208 198 196 197 199 199 199 200 202 201 201 201 201 198 198 198 208 208 208 197 197 197 193 191 192 191 193 190 201 202 204 188 190 189 182 182 182 188 188 188 189 185 186 201 192 193 195 191 190 195 194 192 192 190 191 189 189 189 191 191 189 186 188 187 188 188 188 186 186 184 186 188 185 189 193 194 189 190 192 195 195 195 192 190 191 190 190 190 189 185 184 191 187 186 188 182 182 186 185 183 185 185 185 178 178 178 186 186 186 193 193 193 192 192 192 182 184 183 190 189 187 194 194 194 187 187 187 178 178 178 186 182 179 183 179 178 187 185 186 190 189 187 199 201 200 
198 198 198 205 205 205 196 198 197 214 214 214 200 202 201 196 196 196 197 197 197 198 198 198 197 199 198 208 206 207 201 203 202 195 197 196 190 192 191 196 196 196 195 197 196 196 196 196 201 201 199 199 199 199 198 198 196 203 203 203 195 197 196 210 210 210 199 199 197 202 202 202 194 194 194 195 197 196 189 189 189 195 197 196 193 195 194 190 190 190 191 191 191 189 191 190 186 186 186 191 191 189 184 183 181 196 196 196 181 181 181 185 185 185 186 186 186 190 192 191 189 191 190 199 201 200 207 207 207 190 188 189 185 185 185 189 185 184 188 187 185 189 185 184 190 189 187 184 184 184 180 178 179 188 188 188 193 193 193 192 192 192 184 180 179 190 184 184 193 189 188 183 183 183 178 176 177 188 188 188 180 180 178 194 193 191 198 198 196 195 195 195 
190 192 191 204 204 204 199 199 199 210 210 210 191 192 194 191 193 192 196 198 197 195 196 198 196 198 197 208 208 208 202 204 203 196 197 199 189 191 190 197 197 197 193 195 194 198 196 197 193 193 193 202 202 202 201 203 202 203 203 203 199 199 197 201 199 200 193 191 192 204 204 202 192 192 192 199 201 200 195 197 196 194 194 194 192 192 192 190 188 189 191 191 189 196 195 193 194 194 194 193 195 194 187 187 187 201 203 202 194 194 194 189 189 189 193 193 193 182 183 185 196 198 197 201 203 202 198 198 198 185 185 185 179 178 176 183 183 183 185 185 185 189 185 184 188 186 187 188 186 189 188 186 187 190 190 190 192 192 192 192 192 192 190 190 188 184 184 186 190 190 190 185 185 185 186 188 187 186 188 187 209 205 204 207 207 207 192 194 193 195 195 195 
198 200 199 202 208 208 204 206 205 210 212 211 197 199 198 193 195 194 193 195 194 199 201 200 201 203 202 202 204 203 207 207 207 195 195 195 187 189 188 191 193 192 196 198 197 197 199 198 197 199 196 202 201 197 199 199 197 204 204 204 203 201 202 206 204 205 193 193 193 205 207 206 196 198 197 197 197 197 208 210 209 194 196 195 200 202 201 192 194 193 189 191 190 199 199 199 203 201 202 197 197 197 179 179 179 191 191 191 192 192 192 191 191 191 190 190 188 190 191 193 188 190 189 198 200 199 196 196 196 183 185 184 185 185 185 187 183 184 183 183 183 186 184 185 188 186 187 188 188 190 192 192 192 196 196 196 187 189 188 192 191 189 188 187 185 190 189 187 191 191 193 186 186 186 187 189 188 192 194 193 200 202 201 198 202 201 201 205 204 190 190 192 
202 206 207 201 203 202 201 201 201 206 204 205 205 207 206 195 197 196 200 202 201 199 201 200 200 202 201 197 199 198 198 200 199 192 192 190 189 191 190 195 197 196 200 200 200 201 201 201 204 204 204 203 203 203 203 203 203 204 204 204 206 206 206 201 201 201 192 194 191 203 205 204 202 204 203 197 199 198 202 202 202 193 193 193 195 197 196 199 199 199 195 195 195 201 203 202 195 195 195 195 199 200 186 188 187 194 192 193 197 197 197 188 188 188 195 195 195 190 190 190 196 198 197 193 195 194 192 194 193 184 184 184 184 184 182 184 182 183 184 184 184 189 187 188 181 181 179 191 191 191 192 192 192 196 198 197 188 188 188 189 187 188 193 191 192 190 190 190 193 193 195 186 188 187 194 194 194 198 198 198 202 204 203 201 201 201 196 198 197 193 197 198 
191 193 192 190 192 191 204 206 205 198 200 199 196 198 197 196 198 197 195 197 196 189 191 188 193 195 194 194 196 195 212 212 210 195 197 196 195 195 195 195 193 196 198 200 199 197 199 198 192 192 192 199 201 200 203 203 203 198 200 197 199 199 199 202 202 202 191 189 190 208 208 208 197 199 196 200 202 201 194 194 194 200 198 199 197 197 197 200 200 200 205 201 200 200 200 200 197 197 195 207 209 206 192 194 193 194 196 195 196 198 197 190 190 190 185 185 185 193 193 191 194 194 194 189 189 189 191 191 193 187 187 185 188 182 182 187 183 182 185 184 182 182 182 182 177 177 177 183 183 183 192 192 190 182 180 183 192 191 189 189 187 188 189 187 188 192 190 191 194 192 193 191 191 191 200 200 200 194 196 195 191 191 191 189 191 190 189 187 188 184 184 184 
189 189 189 195 197 196 202 202 202 196 196 196 204 206 205 192 194 193 189 188 186 195 197 196 191 193 192 203 201 202 194 192 193 198 200 199 191 195 194 188 190 189 191 191 189 201 197 196 187 187 187 197 195 196 205 203 204 187 185 186 195 195 195 201 203 202 187 189 188 203 203 203 198 200 199 201 203 202 192 192 192 208 208 208 200 200 200 196 196 196 197 197 197 200 199 197 194 192 193 195 195 195 191 197 197 194 196 195 195 197 196 192 194 193 194 195 197 189 189 189 183 185 184 189 185 182 191 191 191 193 195 194 182 180 181 182 181 179 188 187 185 180 178 179 182 182 184 185 185 185 199 199 197 187 187 187 190 181 182 192 188 189 187 189 188 194 194 192 193 189 188 193 192 190 194 192 193 187 189 188 183 183 183 194 194 194 186 186 186 192 190 191 
195 191 190 199 201 200 193 193 193 198 197 195 186 190 189 191 193 192 193 195 194 197 197 197 195 194 192 193 193 191 188 186 187 191 187 186 195 193 196 189 189 189 188 190 189 201 199 200 199 201 200 196 194 195 195 195 195 186 186 184 196 195 193 202 202 202 191 191 189 202 204 203 198 198 198 197 199 198 198 198 198 198 198 198 200 200 200 194 194 194 202 202 202 198 200 199 189 191 190 195 197 196 195 199 200 184 184 184 191 195 194 189 189 189 194 198 197 191 191 191 189 189 189 187 187 187 194 192 193 188 188 188 189 185 186 185 185 185 182 181 179 183 179 178 178 178 178 182 181 177 184 186 185 181 177 176 183 179 178 187 187 187 178 178 176 182 176 176 190 180 181 183 182 180 183 185 184 189 189 189 190 190 190 187 189 186 195 195 195 186 186 188 
186 186 186 191 193 192 196 194 195 189 191 190 188 190 189 193 195 194 199 201 200 196 198 197 194 194 194 193 193 193 186 186 186 186 186 186 188 187 185 190 186 185 191 191 191 201 201 201 197 197 197 194 188 188 193 193 195 187 183 182 190 186 185 197 201 200 192 186 186 198 200 199 193 192 190 196 196 194 206 206 206 208 210 209 201 203 202 198 198 198 198 200 199 196 196 196 194 194 194 193 193 193 190 192 191 187 185 186 193 197 198 196 198 197 194 193 191 196 195 191 183 183 181 186 186 186 191 191 189 188 186 187 190 188 189 182 182 182 188 188 190 178 178 178 186 185 183 175 171 170 185 184 182 182 182 182 187 187 187 187 183 182 181 179 180 173 173 171 184 175 176 188 190 189 185 185 185 192 192 190 194 196 195 191 191 191 190 190 190 189 189 189 
188 186 187 186 184 185 191 190 188 189 191 190 193 195 194 193 195 194 197 195 196 195 197 196 197 199 198 199 201 200 197 199 198 195 197 196 193 193 193 189 189 189 196 194 195 199 195 194 199 195 194 183 181 182 194 192 193 183 179 178 177 175 176 196 192 191 194 186 184 202 204 203 186 186 184 197 199 198 191 191 191 202 204 203 199 197 198 199 199 199 197 199 198 202 202 202 197 197 197 196 198 197 189 191 190 185 187 186 193 195 192 192 192 192 183 185 184 178 178 178 187 186 184 180 179 177 183 183 183 182 182 182 184 184 184 186 184 185 188 188 186 175 175 175 182 186 187 176 178 177 184 182 183 179 179 179 183 185 184 187 186 184 183 177 177 189 189 189 191 191 189 183 183 183 178 178 176 186 186 186 185 187 186 191 187 186 185 185 185 191 191 191 
185 183 184 187 187 185 185 187 186 188 190 189 192 192 190 196 195 193 191 193 192 201 200 198 201 200 198 206 206 206 200 200 202 194 194 194 195 195 195 189 188 186 195 191 190 192 191 189 184 183 179 193 189 188 195 195 195 181 180 178 180 175 172 185 179 179 185 179 179 198 198 198 190 186 185 196 192 193 189 189 189 200 202 201 196 196 196 197 197 197 193 195 194 197 199 198 192 194 193 194 196 195 188 190 189 194 196 195 194 194 194 187 187 187 186 186 186 184 178 178 191 190 188 184 179 176 184 183 181 182 182 180 182 182 182 183 179 180 182 182 180 175 174 172 183 183 181 185 183 184 188 186 187 182 178 177 182 182 182 178 178 178 188 184 183 204 200 197 187 187 187 193 195 194 183 183 183 186 186 186 183 181 182 189 189 189 181 179 180 188 190 187 
187 185 186 184 183 181 188 188 188 193 193 193 193 192 190 186 180 180 199 199 199 198 197 195 196 196 196 190 190 190 195 193 194 193 193 193 189 188 186 192 192 190 189 189 189 191 189 190 176 175 173 186 181 178 178 178 180 191 187 184 175 174 172 191 187 186 186 182 181 183 182 180 183 179 176 190 192 191 198 198 198 207 207 207 197 199 198 185 185 185 198 200 199 200 204 205 191 193 190 192 194 193 187 191 192 194 196 193 192 194 193 184 184 184 188 186 187 185 184 180 186 185 183 177 177 177 187 187 187 184 186 185 185 183 184 185 181 180 178 178 178 178 176 177 184 184 184 183 183 183 189 189 189 179 179 179 185 185 185 195 197 196 183 183 183 191 191 191 190 192 191 187 187 187 183 183 183 186 180 180 183 183 183 183 185 184 185 185 183 188 188 188 
188 188 190 190 190 190 187 187 187 186 184 185 188 184 183 189 185 184 198 200 199 196 192 191 193 192 190 196 196 196 199 195 194 187 187 187 195 185 184 183 183 183 186 188 187 190 185 182 174 175 170 178 176 177 184 180 179 180 180 178 185 184 182 178 178 176 187 187 187 181 176 172 186 182 179 203 206 211 196 194 195 210 209 207 204 204 204 186 188 187 189 191 190 201 203 202 195 199 200 193 197 198 189 193 194 192 198 198 194 196 195 187 187 187 190 190 190 191 187 186 191 191 191 189 189 189 192 186 186 183 185 184 185 185 183 184 184 184 186 186 186 175 177 176 199 201 200 190 194 195 184 188 189 190 192 191 191 193 192 197 199 198 187 187 187 186 184 185 190 194 193 181 181 181 184 184 184 183 183 183 188 187 183 188 188 188 191 193 192 192 194 193 
185 185 185 191 193 192 186 185 183 184 183 181 183 183 181 184 184 184 190 190 192 193 193 193 195 195 195 196 198 197 191 191 191 182 182 182 180 178 179 182 181 179 190 189 187 179 178 176 183 181 182 178 178 178 183 185 184 181 180 178 186 184 185 187 183 182 184 183 181 185 185 185 189 187 188 204 206 205 193 193 193 197 197 197 204 206 205 198 200 199 200 200 200 200 200 200 197 199 198 197 198 200 194 198 201 193 193 193 199 201 200 191 193 192 200 204 203 196 198 197 190 192 191 191 193 192 187 187 185 184 186 185 186 186 186 184 184 184 184 184 184 190 192 191 196 198 197 188 188 186 187 189 188 185 185 185 179 175 176 177 177 175 180 182 181 181 181 181 181 181 179 175 174 172 171 170 168 179 175 174 186 186 186 200 202 201 191 193 192 190 190 190 
185 187 186 192 194 193 191 191 191 179 179 179 190 192 191 201 203 202 190 196 196 188 190 189 194 195 197 193 197 200 189 195 195 182 182 184 182 181 179 183 179 178 184 183 181 178 178 178 174 176 173 183 182 180 185 181 180 184 180 179 183 179 176 184 186 185 181 181 183 189 187 190 190 190 190 204 208 211 191 193 192 187 187 187 200 202 201 196 195 193 200 200 198 199 199 199 197 201 202 195 199 200 202 206 207 189 195 195 194 200 200 193 193 193 189 191 190 191 197 197 200 204 205 198 198 198 196 196 196 188 188 188 186 188 187 183 181 182 181 183 182 190 192 191 185 185 185 184 183 181 183 183 183 184 184 184 187 183 182 180 179 177 192 194 193 180 179 175 174 172 173 177 173 172 177 176 174 177 175 176 184 184 184 199 199 199 192 194 191 189 187 188 
189 191 190 179 179 179 184 184 184 186 184 185 188 190 189 203 205 204 191 195 196 187 193 193 189 193 194 194 198 199 186 187 189 180 179 177 182 182 182 179 178 176 177 177 177 179 178 176 172 170 171 177 179 178 186 182 181 185 184 182 183 182 180 187 187 185 184 184 182 181 181 179 184 186 185 197 201 202 192 194 193 192 194 193 205 207 206 198 200 199 200 200 200 197 197 197 194 196 195 193 195 194 196 200 201 190 194 193 203 207 210 191 193 192 195 199 200 190 194 195 193 197 198 198 198 198 192 193 195 184 184 184 188 188 188 186 186 186 187 189 188 182 186 187 187 187 187 179 179 179 184 183 181 184 180 179 179 178 176 181 181 181 189 189 189 185 183 184 179 180 175 180 180 178 183 182 180 188 182 182 188 184 181 199 198 196 190 192 189 187 185 186 
192 194 193 185 187 186 183 183 183 182 184 183 182 186 187 192 192 192 194 196 195 190 192 191 191 193 192 191 195 196 184 184 184 181 179 180 183 183 183 185 185 185 177 177 175 174 172 173 174 173 171 177 179 178 179 179 179 181 180 178 179 179 179 181 180 178 183 183 183 177 181 180 187 187 187 201 202 204 192 196 197 192 194 193 203 203 201 203 203 203 199 199 199 196 198 197 183 181 182 191 193 192 200 200 200 195 197 196 194 198 201 191 195 196 197 203 201 193 197 196 194 196 195 195 197 196 191 191 191 188 188 188 187 189 188 188 188 188 187 187 187 180 180 180 180 180 180 186 182 181 177 179 176 182 176 176 183 183 183 181 180 178 188 188 188 184 184 184 182 180 181 183 182 180 191 193 192 192 182 183 182 180 181 196 200 201 193 195 194 183 183 183 
186 188 187 184 184 184 197 189 187 183 185 184 191 195 196 192 192 192 190 194 195 190 194 195 191 193 192 186 188 187 188 190 189 177 181 182 181 181 181 177 181 182 178 180 179 174 172 173 171 171 171 176 178 177 179 179 179 181 179 180 187 185 186 188 188 188 190 190 188 180 184 185 181 185 186 198 202 203 196 200 201 191 193 192 202 204 203 194 196 195 205 205 205 201 201 199 191 191 189 192 194 193 195 197 196 197 199 198 197 197 199 192 196 197 198 200 199 195 197 196 197 197 195 192 192 192 196 200 201 200 196 195 192 190 191 196 192 191 182 181 179 186 185 183 183 181 182 181 185 184 180 176 175 181 180 178 184 180 179 173 172 170 179 179 177 169 169 169 171 171 171 180 179 177 179 177 178 182 182 182 180 180 180 197 197 197 195 197 196 187 189 188 
189 189 189 185 187 186 189 189 189 187 187 187 193 195 194 187 191 192 189 191 190 187 187 187 181 183 182 186 186 186 183 184 186 177 181 182 179 185 185 182 188 188 191 195 196 179 181 180 175 175 175 178 178 176 179 178 174 179 179 179 190 192 191 197 201 200 201 203 202 182 186 189 185 189 190 201 207 207 196 198 197 200 202 201 193 193 193 209 207 208 208 208 210 198 200 199 191 190 188 189 187 188 192 194 193 201 203 202 200 202 201 191 193 192 197 201 202 194 198 199 191 195 194 203 201 202 193 193 193 191 191 191 191 189 190 193 193 193 178 180 179 180 180 182 180 179 177 181 183 182 175 173 176 187 183 180 177 176 174 170 170 168 184 186 185 184 188 189 183 183 183 180 184 185 178 178 176 187 186 184 192 192 192 193 195 194 193 195 194 184 184 182 
182 181 179 187 189 188 186 182 181 161 156 153 192 194 193 188 188 188 188 190 189 185 187 186 188 188 188 183 183 181 185 189 190 179 183 186 179 183 184 184 186 185 185 189 190 175 179 180 185 181 180 181 177 176 189 185 184 180 182 181 192 192 192 201 199 200 199 203 204 194 195 197 190 194 195 194 196 195 194 200 200 211 215 216 192 196 197 206 210 211 205 209 210 199 201 200 192 194 193 191 191 191 196 196 196 194 198 199 202 204 201 191 193 192 194 198 199 194 195 197 189 191 190 190 190 190 189 189 189 193 193 193 191 189 190 192 192 192 185 183 184 179 179 179 186 186 186 186 186 186 186 185 183 185 187 186 181 181 181 181 181 181 180 184 185 180 184 185 182 186 187 177 181 182 174 176 175 181 185 186 187 187 187 182 186 189 182 182 182 181 180 178 
197 183 183 179 177 178 179 179 177 177 176 174 182 184 183 184 180 179 185 184 182 184 180 179 183 183 183 187 189 188 194 200 198 184 188 189 177 181 182 188 188 188 188 190 189 182 184 183 185 185 185 200 199 197 185 185 183 187 187 187 190 190 190 194 196 195 194 198 199 195 199 198 193 197 198 193 197 198 201 205 206 206 210 211 195 199 200 212 217 220 203 207 208 198 202 203 193 197 198 186 190 191 193 197 198 196 198 197 202 204 203 194 194 194 193 197 200 193 197 196 190 194 193 192 190 191 185 189 188 190 190 190 195 195 195 199 199 199 196 198 197 190 190 190 185 183 184 183 185 182 186 186 186 185 187 186 182 188 188 179 181 180 177 181 182 183 187 188 188 192 193 186 190 191 180 181 176 185 184 182 186 188 187 183 185 184 177 177 177 183 177 177 
185 180 177 178 174 173 181 181 181 179 173 173 171 171 171 184 180 179 187 187 187 186 182 181 179 179 179 189 191 190 190 194 195 183 187 188 189 193 194 189 191 190 183 183 183 182 186 187 179 181 180 189 189 189 184 186 185 185 185 185 196 196 194 194 196 193 197 197 197 194 198 199 197 201 202 196 198 197 192 196 197 191 191 189 191 193 192 200 202 201 202 204 203 198 200 199 192 196 197 191 193 192 197 196 194 197 197 197 198 198 198 191 191 191 190 192 191 195 197 196 187 189 188 173 173 173 193 191 192 192 194 193 191 191 191 199 199 199 191 195 194 192 196 197 194 196 195 196 198 197 189 193 194 189 189 189 179 180 175 201 205 206 181 183 182 182 186 187 188 192 193 192 196 195 185 189 188 178 177 175 186 182 181 179 177 180 180 179 177 184 176 174 
182 177 174 176 174 175 178 180 179 182 180 181 198 196 197 180 176 175 180 172 170 189 191 190 180 180 178 184 178 178 193 195 194 193 197 198 186 190 191 194 194 194 187 187 189 186 188 187 188 188 188 193 193 193 204 202 203 185 187 186 204 204 204 202 202 202 210 210 210 208 212 213 201 205 206 190 194 195 204 206 205 194 194 194 193 193 193 188 188 188 187 189 188 198 198 198 189 190 192 193 194 196 191 191 191 193 193 193 196 194 195 186 186 186 187 187 187 194 194 194 187 186 184 177 177 177 188 189 191 192 196 195 191 195 196 192 194 193 192 194 193 191 193 192 191 191 191 194 196 195 188 188 188 185 187 186 182 178 177 184 188 187 187 183 182 185 183 184 187 191 192 193 192 190 190 191 193 171 170 168 179 175 174 189 177 177 181 177 176 186 176 175 
174 173 171 175 175 175 179 178 176 179 175 174 200 200 200 188 190 189 176 178 177 181 181 181 169 168 166 185 185 185 186 190 193 183 187 188 183 187 188 195 201 201 189 191 190 185 185 185 190 189 187 191 189 190 190 191 193 198 197 195 193 193 193 201 201 201 194 194 194 201 203 202 187 191 192 202 206 207 191 193 192 188 186 187 189 189 189 186 182 183 190 190 190 196 196 196 191 187 186 188 190 189 187 185 186 190 190 188 193 187 187 185 179 179 181 181 181 186 185 183 188 188 186 183 183 183 191 191 191 194 198 199 192 196 197 186 190 193 191 191 191 189 189 189 195 193 194 193 195 194 190 192 191 181 183 182 179 181 180 192 190 191 183 182 180 181 181 181 189 191 190 182 182 182 187 186 184 176 172 171 187 181 181 186 174 174 182 181 179 177 177 177 
177 173 170 179 179 179 181 181 181 180 182 181 186 186 186 193 197 198 171 175 176 186 186 184 181 180 178 189 189 189 188 190 189 191 195 196 183 181 182 187 189 188 189 191 190 193 193 191 190 192 191 185 185 185 186 186 184 188 188 188 196 196 196 194 194 194 183 183 183 196 194 195 193 197 198 180 184 185 197 197 197 188 187 185 188 188 188 190 190 190 195 197 196 193 193 193 191 187 186 187 186 184 183 182 180 184 180 179 185 176 177 183 185 184 184 186 185 177 177 177 191 190 188 191 187 184 183 179 176 191 195 194 183 187 188 188 192 193 192 192 192 185 185 187 191 193 192 185 187 186 191 191 191 180 180 178 182 184 181 185 185 185 186 182 181 185 185 185 186 186 186 187 183 182 182 181 179 171 171 169 187 183 184 178 178 178 181 181 179 182 182 182 
188 188 188 179 179 179 175 174 172 184 183 181 189 189 189 198 200 197 181 177 174 189 189 189 191 193 192 193 193 193 184 184 184 184 182 183 171 171 171 193 192 190 187 187 189 186 184 185 191 189 190 188 187 185 189 180 181 192 190 191 186 186 186 192 188 187 191 185 185 193 192 190 185 189 190 184 186 185 189 188 186 179 178 176 183 182 180 184 182 183 183 181 182 185 183 184 182 182 180 182 182 180 186 186 186 184 178 178 180 174 174 179 175 174 181 185 186 185 181 180 193 187 187 172 172 172 177 176 174 192 192 192 170 174 175 171 175 176 206 210 211 190 194 195 189 193 194 185 189 192 194 196 195 181 183 182 188 188 188 193 193 193 189 183 183 183 182 180 184 184 184 189 187 188 183 182 180 177 177 177 185 183 184 181 177 176 183 179 178 184 183 181 
183 183 183 180 171 172 181 175 175 181 180 178 188 187 185 194 193 191 187 183 182 191 191 191 194 194 194 193 193 195 180 180 180 188 188 188 172 174 173 186 186 184 185 187 186 183 185 184 188 188 186 174 174 176 184 184 184 188 188 188 193 191 192 205 191 191 183 179 178 182 180 181 188 192 193 179 181 180 192 192 192 174 173 171 177 176 174 185 185 185 185 183 186 182 181 177 185 185 185 182 180 181 188 190 187 173 167 167 172 166 166 174 170 169 179 181 180 190 189 187 187 183 180 179 179 179 179 178 174 182 184 183 173 167 167 172 178 178 204 208 209 189 191 188 187 191 192 182 186 187 189 189 189 189 191 190 192 193 195 191 191 191 183 183 181 183 183 183 189 191 190 180 178 179 179 179 179 181 181 179 190 190 188 183 179 178 180 180 180 180 180 180 
185 181 180 180 179 177 179 173 173 190 190 190 180 180 180 191 189 190 188 188 190 189 187 188 197 197 195 189 189 189 185 185 185 189 191 190 182 182 182 188 188 186 180 180 180 194 198 199 186 186 186 182 184 183 185 185 185 171 171 171 195 195 195 185 181 180 195 191 190 177 177 177 178 177 175 180 182 181 189 189 191 172 172 172 174 173 171 184 180 177 180 180 182 181 179 180 180 180 178 176 175 173 174 174 174 176 176 176 174 174 172 177 173 172 175 179 182 174 173 171 185 179 179 179 175 174 186 182 179 180 180 178 176 176 176 184 186 185 200 204 205 192 196 197 187 191 192 185 189 190 190 194 197 197 201 202 193 195 194 182 181 179 190 186 185 181 181 181 184 183 181 191 191 191 185 185 183 185 185 185 184 184 184 188 192 191 183 182 180 183 174 175 
187 186 184 187 187 185 184 180 179 181 179 180 188 187 185 190 192 191 187 187 187 185 183 184 188 190 189 184 184 184 185 185 185 182 181 177 184 184 184 189 189 189 188 188 188 188 188 188 187 189 188 190 194 195 190 192 191 178 174 173 202 198 197 187 178 181 184 184 184 180 180 180 182 182 182 177 177 177 178 174 173 174 170 169 182 178 177 191 181 180 187 179 177 184 178 178 179 178 176 174 170 169 184 187 192 182 182 182 184 188 189 173 177 178 190 186 185 186 186 186 188 189 191 183 187 186 183 179 176 190 188 189 185 185 185 192 192 192 202 204 203 194 198 199 190 194 195 190 191 193 202 205 210 203 204 206 197 199 198 195 194 192 190 190 190 184 183 181 186 186 186 185 183 184 186 184 185 185 187 186 182 184 183 186 187 189 183 183 183 187 183 182 
187 187 187 187 187 187 186 186 186 185 185 185 181 181 179 185 185 185 178 178 178 182 176 176 180 180 180 184 182 183 178 174 173 172 172 172 188 184 181 189 187 188 197 197 197 191 191 191 186 190 191 187 191 192 175 179 178 183 182 180 191 190 188 186 186 186 190 186 187 182 182 182 183 185 184 182 182 182 179 175 174 182 174 172 187 177 176 193 181 181 181 175 175 188 178 177 182 172 171 170 169 167 174 174 174 177 179 178 180 184 185 174 178 179 190 192 191 187 186 184 185 189 190 183 181 182 187 181 181 189 188 186 186 186 186 201 201 199 199 201 200 197 201 200 193 199 199 196 200 201 201 205 206 200 204 205 189 193 194 190 190 190 192 192 192 188 188 188 194 196 195 188 188 188 186 190 191 185 189 190 185 189 190 188 192 193 186 188 187 183 185 184 
189 189 189 194 196 195 188 188 188 176 178 177 186 184 185 186 186 186 176 176 176 179 179 179 183 179 178 182 184 183 175 169 169 181 179 180 188 188 188 193 192 190 193 193 193 197 201 202 187 191 194 187 191 190 185 185 185 189 185 184 188 187 185 185 185 185 186 186 186 191 191 191 195 195 193 187 187 187 185 185 185 185 181 180 191 190 188 189 183 183 197 185 185 189 179 178 184 174 173 177 173 172 175 177 176 173 167 167 170 164 164 172 176 177 177 179 176 188 190 189 190 188 189 192 184 182 191 181 180 189 189 189 187 187 187 199 201 200 205 207 206 193 197 198 193 197 198 197 201 202 195 199 200 198 202 203 192 190 191 192 192 192 189 189 189 191 191 191 194 196 195 194 198 197 200 202 201 190 194 195 190 194 195 192 198 198 185 185 185 188 189 191 
188 188 186 188 188 188 189 191 190 178 177 175 178 178 178 193 193 193 181 181 181 183 174 175 183 179 178 189 183 185 182 182 182 183 181 182 196 192 191 197 196 194 189 189 189 195 197 196 190 189 187 190 190 190 189 189 189 181 181 181 187 189 188 186 184 185 185 187 186 191 191 193 188 190 189 194 194 194 181 185 184 181 179 180 189 183 183 191 187 186 190 184 184 177 176 174 180 178 179 177 175 176 176 172 171 171 167 166 172 166 166 172 176 177 180 184 185 187 189 188 176 178 177 189 175 175 184 178 178 188 190 189 190 191 193 201 201 201 204 204 206 200 202 201 201 205 208 195 197 196 204 206 205 198 202 203 192 196 195 195 195 195 191 191 191 195 195 195 191 193 192 187 187 185 192 192 192 186 188 187 186 186 184 183 183 183 183 183 183 180 180 178 
188 190 189 187 187 187 181 181 181 177 175 176 175 175 175 186 188 183 185 181 182 184 178 178 179 175 174 187 186 184 180 180 178 181 177 174 187 185 186 196 200 201 182 184 183 193 193 193 187 187 187 184 185 180 184 184 184 183 185 184 196 196 196 181 182 184 198 200 199 197 197 195 189 189 189 186 185 183 180 182 181 181 182 184 193 189 186 182 178 179 186 180 180 184 178 178 177 171 171 169 169 171 169 163 163 167 163 162 179 163 163 174 178 177 183 187 190 184 188 189 186 180 180 198 182 183 188 178 177 181 181 181 194 194 194 205 207 206 206 208 207 207 211 212 205 203 204 200 200 200 208 214 214 194 196 193 189 189 189 195 195 195 190 190 190 192 192 192 193 197 198 190 188 189 191 191 191 186 186 186 192 188 185 193 192 190 191 187 186 184 184 184 
187 187 187 174 173 171 175 175 173 177 177 177 176 178 175 182 182 180 179 179 177 180 179 177 180 176 175 179 179 179 173 172 170 178 176 177 184 184 184 194 198 197 185 189 190 187 187 187 191 197 197 188 190 189 183 185 184 184 184 184 192 192 192 178 182 181 184 186 185 196 195 193 185 187 186 187 183 182 187 186 184 181 183 182 189 185 182 183 185 184 187 181 183 183 177 177 175 167 165 183 185 184 168 168 168 169 163 163 171 169 170 176 180 181 184 188 189 176 170 170 190 178 178 181 173 171 184 170 169 196 187 188 191 187 186 200 204 205 211 215 216 211 215 216 205 204 202 203 205 204 199 201 200 190 192 191 189 189 189 194 194 192 196 192 191 192 192 192 192 196 195 193 189 188 192 191 189 193 188 185 193 193 195 198 198 198 191 193 192 185 183 184 
185 185 185 173 173 173 180 179 177 184 184 184 178 178 178 181 181 181 180 180 180 183 179 178 175 173 174 166 166 166 176 172 171 177 176 174 187 186 184 193 199 199 190 194 195 184 188 189 192 196 197 195 199 200 188 188 188 190 192 191 192 192 190 197 196 194 183 183 183 192 190 191 191 191 191 190 192 191 185 187 186 174 176 175 178 180 179 176 178 177 182 178 175 172 172 170 169 163 163 168 168 170 171 169 170 175 174 172 167 166 164 180 184 185 174 174 172 189 181 178 181 180 178 180 178 179 189 175 172 185 175 174 192 192 192 200 204 205 202 206 205 208 212 213 207 209 208 207 209 208 201 203 202 196 196 196 196 196 198 192 194 193 196 198 197 195 199 198 189 191 190 191 191 191 192 188 187 190 192 191 192 192 192 194 194 194 192 194 193 187 187 187 
187 187 187 176 176 176 178 178 178 184 182 183 180 180 180 183 183 183 183 183 183 180 180 180 168 168 168 182 182 180 178 174 173 177 176 174 187 185 186 186 186 186 190 192 189 180 184 185 202 206 207 195 201 201 199 203 204 194 198 199 198 200 199 192 191 189 186 186 186 189 189 189 195 194 192 189 184 181 179 175 174 174 178 179 177 179 176 178 176 177 179 179 179 177 173 170 175 171 170 175 176 178 169 165 162 168 167 165 172 171 169 185 187 186 198 197 195 187 187 187 187 189 188 172 171 169 182 178 177 170 169 165 191 191 189 206 210 211 199 203 206 206 210 211 204 208 209 210 214 215 207 207 205 192 192 192 194 196 195 190 192 191 191 191 191 191 193 192 205 201 202 195 195 195 187 189 188 196 194 195 192 193 195 195 195 195 188 188 188 184 186 185 
188 190 189 188 188 188 177 177 177 175 177 176 181 181 181 187 189 188 187 187 187 176 176 176 179 179 179 179 178 176 171 171 171 179 181 180 177 177 177 188 188 188 191 185 185 180 184 185 190 194 195 208 212 213 176 176 176 199 203 204 185 185 185 191 190 188 189 189 189 188 184 183 189 187 188 181 179 180 173 172 170 180 184 185 184 188 189 176 175 171 177 177 177 182 182 182 163 161 162 168 168 168 164 164 164 175 175 175 178 178 178 187 189 188 193 193 191 192 188 187 189 188 184 191 191 191 188 188 188 177 173 172 189 191 190 207 209 208 207 211 212 202 206 207 200 202 201 206 210 209 205 207 206 192 192 192 190 190 190 193 193 191 185 187 186 194 194 194 190 186 185 196 198 195 198 200 199 191 191 191 197 196 194 198 196 199 191 191 191 189 188 186 
178 180 179 186 186 184 194 193 191 186 186 186 188 189 191 194 198 199 188 192 193 186 190 193 179 178 176 189 189 189 180 182 181 175 177 176 177 173 170 188 186 187 181 179 180 178 180 179 188 189 191 183 187 188 185 187 186 192 194 193 194 196 195 190 190 190 192 190 191 188 188 188 191 193 192 193 189 186 180 180 180 174 178 177 186 190 191 176 178 177 173 173 173 179 179 179 181 181 181 168 168 168 168 168 168 175 173 174 179 181 180 184 186 183 189 189 189 183 182 180 190 186 185 186 184 185 185 181 180 183 183 183 190 194 195 202 206 207 208 209 211 201 205 206 200 202 201 207 209 208 197 201 202 195 195 195 190 190 190 188 188 186 180 180 180 199 190 191 195 191 188 194 196 195 195 194 192 182 178 177 197 193 192 191 187 186 195 193 194 193 189 190 
173 167 167 184 183 181 185 185 185 199 198 196 186 186 186 195 199 200 188 192 193 186 186 184 180 184 185 189 195 195 178 182 183 179 181 180 183 183 181 185 189 188 186 186 186 185 184 182 185 187 186 183 183 183 178 178 176 184 186 185 189 193 194 195 197 196 198 202 203 195 195 193 193 193 193 191 191 191 184 188 191 182 181 179 189 191 190 186 188 187 178 178 178 176 174 175 173 173 173 170 170 170 169 171 170 175 173 174 177 179 178 189 189 187 182 181 179 185 185 185 183 183 183 187 189 188 182 181 179 183 183 183 193 199 199 207 211 212 198 202 203 186 190 191 196 196 194 201 201 201 197 199 198 208 204 201 192 192 192 195 197 196 200 199 197 194 193 189 184 183 179 186 185 183 182 181 179 188 186 189 181 179 180 190 192 189 194 196 195 188 190 189 
174 165 166 186 188 187 185 185 185 195 197 196 190 194 197 194 198 199 184 184 184 177 177 179 182 186 187 194 198 199 185 189 190 177 179 178 187 191 192 187 185 186 179 179 181 181 185 186 183 185 184 182 184 183 172 172 172 187 191 192 186 190 191 195 199 200 195 201 201 202 204 203 205 203 204 198 200 199 191 195 196 196 198 197 193 197 198 191 191 189 190 190 190 184 178 178 169 169 169 174 178 179 173 175 174 179 173 173 172 174 173 193 195 194 187 189 188 190 192 191 177 177 175 179 178 176 179 179 179 184 182 183 201 203 200 197 197 197 198 197 195 190 190 190 195 199 200 200 204 205 199 197 198 199 190 191 204 198 198 191 195 194 185 181 180 197 196 194 191 190 188 182 176 176 181 175 175 179 180 175 179 179 177 178 177 175 190 190 190 188 188 188 
172 174 173 193 193 193 185 187 186 181 183 182 191 195 196 192 196 197 184 188 189 182 184 183 183 187 188 186 190 191 177 179 178 191 193 192 179 180 175 185 181 180 190 190 188 202 206 207 180 184 185 192 192 192 183 181 182 192 198 196 190 194 195 208 212 213 204 204 204 192 192 192 198 198 198 202 202 200 202 203 205 195 195 195 201 201 201 183 185 184 183 183 181 186 188 187 189 190 194 188 192 193 179 183 184 185 187 184 186 185 183 177 179 178 190 194 195 186 190 189 178 178 178 180 180 180 176 178 175 192 194 193 212 216 217 205 207 206 196 196 196 181 181 181 189 189 189 187 187 187 199 197 198 205 197 195 184 184 184 192 191 189 183 178 175 196 188 186 184 180 179 182 178 177 181 181 179 181 181 181 181 180 178 190 186 183 184 184 184 187 189 188 
177 177 177 196 196 194 189 191 190 183 185 184 191 193 192 193 194 196 190 192 191 188 190 189 195 199 200 176 176 176 183 183 183 184 183 179 183 182 180 182 182 182 196 198 197 184 188 189 185 187 186 189 189 189 182 180 183 187 191 194 193 195 194 195 201 201 197 199 198 195 199 200 192 192 192 193 197 198 201 201 201 201 203 202 195 197 196 189 191 190 186 186 186 184 186 185 179 179 179 184 188 189 185 189 190 181 181 181 189 191 190 192 192 192 180 182 181 185 187 186 175 177 174 178 178 178 185 189 190 197 198 200 200 202 201 196 202 202 188 188 188 193 195 194 182 182 182 191 190 188 192 192 194 200 200 200 187 191 190 187 187 187 181 180 178 187 177 176 182 177 174 187 181 181 182 178 177 183 175 173 176 176 176 185 181 180 180 178 179 181 181 181 
183 181 182 205 203 204 189 189 189 192 192 192 189 193 194 194 198 201 193 197 198 196 200 203 195 201 201 181 185 188 182 184 183 179 183 184 185 185 185 190 190 190 182 182 182 181 179 180 181 177 176 179 177 178 179 177 178 199 199 199 179 181 180 196 200 201 198 200 199 192 194 193 198 200 199 199 203 204 201 201 201 190 194 193 194 196 195 192 192 192 186 188 187 188 188 188 185 189 190 190 192 191 191 191 191 185 189 192 189 189 189 187 187 187 182 181 179 182 184 183 180 184 183 178 180 179 192 196 197 203 207 208 205 207 206 200 202 201 201 203 202 200 200 200 190 191 193 185 185 185 192 192 192 189 189 189 191 193 192 186 188 187 179 179 179 175 173 174 186 180 180 184 184 184 179 175 172 175 171 170 181 177 176 184 184 184 177 177 175 177 173 172 
186 184 185 194 196 195 190 192 191 192 194 193 190 192 191 192 196 197 193 197 198 192 196 199 196 200 201 183 187 188 183 185 184 180 184 185 181 183 182 190 190 190 184 184 184 185 189 190 178 178 178 177 177 177 180 180 180 188 187 185 176 176 176 201 202 204 193 197 198 192 194 193 199 200 202 194 194 194 191 190 188 194 194 194 189 193 194 191 197 197 190 192 191 186 190 191 183 187 188 198 202 203 187 193 193 188 192 193 187 191 192 183 187 188 184 188 189 196 187 188 184 186 185 188 190 189 199 203 204 202 204 203 200 202 201 194 196 193 202 206 207 193 195 194 191 189 190 190 186 185 193 195 194 184 184 184 187 189 186 183 189 189 178 180 179 180 180 180 181 175 175 186 180 180 178 178 178 179 175 176 175 179 180 189 185 184 182 180 181 186 168 168 
179 179 179 193 193 193 192 194 193 192 194 193 183 185 184 190 192 191 195 199 200 190 194 195 193 197 198 181 185 186 184 188 189 185 189 190 184 186 185 193 195 194 176 176 176 179 181 178 189 189 189 188 184 183 178 172 172 180 180 180 171 171 171 199 203 204 196 200 203 194 196 195 186 188 187 193 193 193 191 193 190 188 188 188 192 194 193 193 191 192 195 197 196 186 186 186 185 189 190 191 195 196 189 193 194 204 208 207 200 204 205 188 192 195 194 194 192 193 193 193 195 197 196 186 190 191 204 206 205 204 208 209 200 204 205 187 191 192 198 200 199 190 196 194 189 195 195 191 195 194 190 192 191 174 172 173 180 184 185 183 185 184 177 181 182 180 181 183 179 181 180 183 185 184 174 174 174 176 174 175 185 185 185 190 186 185 183 177 177 197 193 194 
184 184 184 193 197 196 190 192 191 189 189 189 185 187 186 189 189 189 192 196 197 191 195 196 193 197 198 182 186 187 186 187 189 186 186 184 186 190 191 192 194 193 177 179 178 181 183 182 180 184 185 182 182 182 178 180 179 192 192 192 195 193 194 189 195 195 195 197 196 188 188 188 186 186 186 188 190 189 198 197 195 187 189 188 190 190 190 194 194 194 197 197 197 190 192 191 189 193 194 190 194 195 190 196 196 195 199 198 196 200 201 192 196 197 193 195 194 184 184 184 193 193 195 199 203 204 206 208 207 197 201 202 199 203 204 193 197 198 196 198 197 195 199 200 191 195 194 194 198 201 181 185 186 182 180 181 182 182 184 179 183 184 181 183 182 180 182 181 182 186 187 179 183 184 184 186 185 183 185 182 183 185 184 180 182 181 188 188 186 179 179 179 
182 186 187 197 201 202 190 194 195 186 186 186 188 190 189 191 193 192 192 196 197 188 192 193 193 197 198 188 190 189 187 191 192 190 194 195 191 195 194 184 188 189 187 189 188 187 187 187 187 189 188 189 191 190 197 195 196 194 194 194 201 207 207 198 202 203 197 201 202 190 190 190 187 187 187 192 194 193 196 198 197 188 188 188 192 192 194 189 191 190 196 196 196 187 191 192 198 202 201 188 192 191 198 196 197 200 202 201 197 201 202 186 185 183 199 201 200 195 191 190 206 208 207 200 202 201 207 211 212 198 202 203 193 193 193 196 200 201 196 200 201 197 201 202 190 194 197 194 198 199 183 185 184 179 181 180 180 184 185 177 181 182 176 172 171 176 175 173 187 189 188 186 192 192 195 199 200 193 195 194 186 188 187 189 191 190 182 186 187 187 189 188 
187 191 192 194 199 202 193 197 198 189 191 190 194 196 195 199 201 200 194 194 194 197 201 202 190 194 193 189 193 194 190 194 195 192 194 193 189 193 194 184 188 189 185 189 192 179 183 184 190 194 195 186 186 186 193 193 193 192 194 193 191 195 196 197 201 202 201 205 206 191 195 196 189 191 190 197 201 202 191 193 192 188 188 186 187 187 189 179 179 179 189 189 191 186 188 187 194 196 195 190 190 190 191 193 192 199 199 199 192 194 193 186 186 186 183 185 184 205 205 205 195 197 196 204 208 209 206 210 211 209 213 214 207 206 204 194 198 199 198 202 203 200 204 205 193 197 198 179 179 179 186 182 181 185 189 190 182 186 187 179 183 186 188 190 189 175 171 170 185 183 184 202 204 203 194 198 199 190 194 195 195 199 200 189 193 192 182 186 187 191 195 196 
195 199 200 199 203 204 192 196 197 200 204 205 196 200 201 206 212 212 202 206 207 196 200 201 189 193 194 189 193 194 192 193 195 188 192 195 189 193 194 185 187 186 188 190 189 185 187 186 193 197 198 190 192 191 193 192 190 193 193 193 188 192 195 188 188 188 202 206 207 190 194 195 191 195 196 197 203 203 191 195 196 197 197 197 191 195 196 186 188 187 191 195 196 185 187 186 197 199 198 191 193 192 185 185 185 198 194 191 195 195 195 189 189 189 186 188 187 190 190 192 193 195 194 189 193 194 199 203 204 204 208 209 206 210 211 205 209 210 197 203 203 199 203 204 194 196 195 183 183 183 182 182 182 185 187 186 183 181 182 182 184 183 185 185 185 172 170 171 181 185 186 195 197 196 199 203 204 190 194 195 190 194 195 190 194 195 190 192 191 193 197 196 
188 192 193 201 205 206 195 199 200 207 211 212 210 214 217 202 206 207 197 201 202 190 194 195 195 199 200 192 196 195 195 199 200 191 195 196 193 197 198 185 189 190 186 190 191 190 190 192 199 201 200 195 201 201 195 197 196 191 191 189 191 195 196 194 198 199 195 199 200 191 192 194 193 197 198 200 206 206 191 192 194 189 193 192 188 190 189 190 192 191 192 190 191 176 178 177 196 198 197 193 197 198 191 191 191 192 192 192 196 198 197 188 194 194 192 194 191 187 188 190 185 187 186 189 194 197 198 202 203 202 206 207 197 201 202 202 208 208 195 197 196 197 197 197 195 197 196 178 177 175 177 175 176 185 185 185 182 181 179 181 177 178 182 182 180 177 173 172 181 185 186 179 183 184 194 198 199 193 197 198 188 192 193 194 198 199 193 197 200 191 195 196 
192 196 197 199 200 202 199 203 204 206 210 211 204 213 212 202 203 205 213 217 218 188 192 193 195 199 200 196 200 201 198 202 203 189 190 192 189 193 194 186 190 191 187 189 188 190 192 189 197 199 196 196 200 203 188 192 193 192 192 192 199 203 204 192 196 197 194 196 195 187 189 186 194 196 193 197 201 200 190 194 195 191 192 196 187 187 187 186 188 187 189 193 194 180 181 183 188 192 193 189 193 194 192 196 197 200 204 205 203 207 208 191 195 196 183 189 189 186 190 191 188 194 194 188 190 189 192 196 197 196 200 201 195 199 200 202 206 207 207 207 207 198 198 198 199 203 204 185 185 183 171 170 168 164 164 162 184 180 179 180 180 180 175 179 180 173 177 178 181 185 186 182 186 187 187 191 192 189 193 194 193 197 198 193 197 198 187 191 192 193 197 198 
194 198 199 190 194 195 197 201 202 203 205 204 201 205 206 193 195 194 205 209 210 196 200 201 201 203 200 200 202 201 197 201 202 197 199 198 190 192 191 190 192 191 190 192 191 194 194 192 199 201 200 198 198 198 190 190 190 191 193 192 192 194 193 189 191 190 192 198 198 189 189 189 191 195 196 196 200 201 191 195 198 190 192 191 187 185 186 187 187 187 189 193 194 180 182 181 185 189 190 193 197 198 194 198 199 196 200 201 200 204 205 200 204 205 181 185 186 184 184 184 183 187 188 183 189 189 184 188 187 199 203 204 191 195 196 202 204 203 199 201 200 189 193 194 194 198 197 188 190 189 178 178 178 173 172 170 181 180 178 177 182 185 181 177 176 182 186 187 189 191 190 190 194 195 188 192 193 194 198 199 192 194 193 186 187 189 186 190 191 188 194 194 
194 198 199 194 196 195 194 198 199 205 209 208 202 204 203 199 197 198 204 208 209 211 212 216 204 208 209 203 207 208 201 205 206 197 203 203 192 196 197 186 190 193 189 191 190 186 188 187 195 197 196 200 198 199 191 193 192 188 188 188 181 181 181 185 185 183 189 189 189 188 190 189 188 189 191 192 196 197 184 188 189 182 182 182 186 190 191 185 189 188 185 187 186 194 196 195 183 185 184 199 203 204 193 197 198 193 197 198 199 201 200 200 202 201 181 181 181 186 188 187 190 194 195 185 189 190 191 195 196 200 204 205 193 195 194 199 203 204 199 203 204 184 188 189 190 194 195 181 185 184 187 185 186 174 170 171 174 178 179 176 180 181 177 181 182 190 192 191 188 190 189 185 187 186 192 196 195 191 193 190 190 192 191 182 186 187 187 191 192 195 197 196 
192 196 197 192 196 197 199 203 204 204 208 209 196 198 195 199 203 204 204 206 205 210 214 215 208 214 214 204 208 209 204 208 209 205 209 210 189 193 194 189 195 195 191 191 191 184 184 184 200 200 200 195 195 195 191 191 189 185 185 185 184 180 179 180 178 179 190 192 191 187 187 189 195 197 196 193 197 198 184 188 189 184 184 184 183 182 180 186 186 186 184 184 184 191 193 192 188 192 193 188 188 188 189 191 190 192 194 193 192 192 192 192 194 193 188 190 187 190 191 186 180 184 185 180 184 185 187 191 192 195 199 198 191 195 196 200 204 205 196 198 197 191 191 191 197 201 202 193 197 198 193 197 198 176 180 181 176 180 181 172 176 177 176 180 181 182 186 189 192 196 197 187 191 192 185 189 188 190 192 191 186 190 191 181 185 186 178 182 183 193 195 194 
192 194 193 197 197 197 194 196 195 207 211 214 203 205 204 210 214 215 205 209 210 214 218 221 206 210 211 203 207 208 204 208 207 196 200 201 191 193 192 193 195 194 191 190 188 185 187 186 197 195 196 197 197 197 192 192 192 183 179 178 186 180 180 175 171 170 190 192 191 191 193 192 192 198 196 189 193 194 203 207 208 181 181 181 183 183 183 181 181 179 196 192 191 187 189 188 190 188 189 191 191 191 189 191 190 194 195 197 193 191 192 188 190 189 185 187 184 184 188 189 185 189 192 177 183 183 187 191 190 193 199 199 191 195 196 196 198 197 194 196 195 199 201 200 198 203 206 196 200 201 188 192 193 191 195 196 176 182 182 179 181 180 173 177 178 179 183 184 189 191 190 174 178 177 180 184 185 187 189 188 184 188 189 181 183 182 183 183 183 192 188 189 
192 194 193 191 195 196 195 201 201 195 199 200 200 202 201 213 217 218 213 217 218 210 210 210 210 214 215 196 196 196 206 208 207 192 194 193 189 193 194 191 189 190 186 188 187 187 189 188 198 200 199 191 191 191 187 187 185 173 167 169 190 186 185 171 170 168 190 190 188 189 191 190 192 196 197 192 194 193 190 192 191 185 184 182 187 187 187 190 186 185 191 191 191 190 190 190 184 185 187 191 191 191 194 196 195 179 181 180 188 188 186 189 191 190 184 185 180 186 188 187 187 191 192 173 178 181 187 191 192 190 196 196 195 197 194 192 196 197 190 194 195 197 201 202 203 207 208 194 198 201 192 196 197 187 189 188 181 181 181 178 180 177 178 180 179 186 190 191 189 193 194 178 178 180 181 181 181 180 184 185 182 186 187 177 181 182 186 187 189 193 195 194 
192 190 191 191 193 192 196 198 197 197 201 202 202 201 199 207 211 214 209 213 214 196 200 201 215 216 220 203 209 209 198 204 204 197 199 198 199 197 198 193 193 193 187 187 187 184 184 184 191 187 186 189 183 183 186 186 186 180 174 174 183 179 178 182 178 177 189 189 189 184 183 181 190 194 195 186 185 181 192 194 191 189 187 188 191 191 191 192 192 192 200 200 200 195 195 195 181 181 181 189 185 182 177 177 177 178 174 173 191 190 188 196 198 197 193 193 193 184 188 187 187 191 192 183 187 188 182 186 187 188 192 193 189 194 190 190 192 191 189 193 194 189 193 194 202 204 203 192 196 197 190 194 195 188 190 189 184 182 183 190 194 193 198 200 199 191 195 196 190 194 195 177 183 183 182 178 177 184 186 185 181 183 182 185 183 184 187 189 188 192 194 193 
