P3
# Checkerboard pattern texture for testing
8 8
255
255 255 255  0 0 0  255 255 255  0 0 0  255 255 255  0 0 0  255 255 255  0 0 0
0 0 0  255 255 255  0 0 0  255 255 255  0 0 0  255 255 255  0 0 0  255 255 255
255 255 255  0 0 0  255 255 255  0 0 0  255 255 255  0 0 0  255 255 255  0 0 0
0 0 0  255 255 255  0 0 0  255 255 255  0 0 0  255 255 255  0 0 0  255 255 255
255 255 255  0 0 0  255 255 255  0 0 0  255 255 255  0 0 0  255 255 255  0 0 0
0 0 0  255 255 255  0 0 0  255 255 255  0 0 0  255 255 255  0 0 0  255 255 255
255 255 255  0 0 0  255 255 255  0 0 0  255 255 255  0 0 0  255 255 255  0 0 0
0 0 0  255 255 255  0 0 0  255 255 255  0 0 0  255 255 255  0 0 0  255 255 255